<?xml version="1.0" encoding="UTF-8" standalone="no"?><!DOCTYPE svg PUBLIC "-//W3C//DTD SVG 1.1//EN" "http://www.w3.org/Graphics/SVG/1.1/DTD/svg11.dtd"><svg width="27px" height="27px" version="1.1" xmlns="http://www.w3.org/2000/svg" xmlns:xlink="http://www.w3.org/1999/xlink" xml:space="preserve" xmlns:serif="http://www.serif.com/" style="fill-rule:evenodd;clip-rule:evenodd;stroke-linejoin:round;stroke-miterlimit:2;"><g transform="matrix(1.33333,0,0,1.33333,0,0)"><g><g transform="matrix(0.9,0,0,0.9,1,1)"><path d="M20,6C20,2.689 17.311,0 14,0L6,0C2.689,0 0,2.689 0,6L0,14C0,17.311 2.689,20 6,20L14,20C17.311,20 20,17.311 20,14L20,6Z" style="fill:white;"/></g><g transform="matrix(0.94714,0,0,0.987768,0.586626,0.172641)"><path d="M9.939,5.393C12.561,5.393 14.69,7.435 14.69,9.949C14.69,12.463 12.561,14.505 9.939,14.505C7.317,14.505 5.188,12.463 5.188,9.949C5.188,7.435 7.317,5.393 9.939,5.393ZM9.939,6.532C11.905,6.532 13.502,8.063 13.502,9.949C13.502,11.835 11.905,13.366 9.939,13.366C7.972,13.366 6.375,11.835 6.375,9.949C6.375,8.063 7.972,6.532 9.939,6.532Z" style="fill:white;"/></g><g transform="matrix(0.951221,0,0,0.980046,0.683194,0.115786)"><ellipse cx="14.836" cy="5.198" rx="0.831" ry="0.806" style="fill:white;"/></g></g></g></svg>